{
  "accessors": [
    {
      "bufferView": 2,
      "componentType": 5126,
      "count": 1349,
      "max": [
        0.7861179709434509,
        31.382944107055664,
        -1.3346960544586182
      ],
      "min": [
        0.3763369917869568,
        11.666622161865234,
        -5.248985767364502
      ],
      "type": "VEC3"
    },
    {
      "bufferView": 2,
      "byteOffset": 16188,
      "componentType": 5126,
      "count": 1349,
      "max": [
        0.9999778866767883,
        1.0,
        0.999973475933075
      ],
      "min": [
        -0.9738321304321289,
        -1.0,
        -1.0
      ],
      "type": "VEC3"
    },
    {
      "bufferView": 3,
      "componentType": 5126,
      "count": 1349,
      "max": [
        1.0,
        1.0,
        0.9999313354492188,
        1.0
      ],
      "min": [
        -0.6241669058799744,
        -0.03503631427884102,
        -0.9999990463256836,
        -1.0
      ],
      "type": "VEC4"
    },
    {
      "bufferView": 1,
      "componentType": 5126,
      "count": 1349,
      "max": [
        0.9822250008583069,
        0.7565879821777344
      ],
      "min": [
        0.0,
        0.0
      ],
      "type": "VEC2"
    },
    {
      "bufferView": 0,
      "componentType": 5125,
      "count": 3399,
      "type": "SCALAR"
    },
    {
      "bufferView": 2,
      "byteOffset": 32376,
      "componentType": 5126,
      "count": 2099,
      "max": [
        0.8442860245704651,
        31.347675323486328,
        -1.461014986038208
      ],
      "min": [
        0.4719110131263733,
        11.702431678771973,
        -5.098604202270508
      ],
      "type": "VEC3"
    },
    {
      "bufferView": 2,
      "byteOffset": 57564,
      "componentType": 5126,
      "count": 2099,
      "max": [
        0.9996175169944763,
        1.0,
        0.9999998807907104
      ],
      "min": [
        -0.9996175765991211,
        -1.0,
        -1.0
      ],
      "type": "VEC3"
    },
    {
      "bufferView": 3,
      "byteOffset": 21584,
      "componentType": 5126,
      "count": 2099,
      "max": [
        1.0,
        1.0,
        1.0,
        1.0
      ],
      "min": [
        -0.9825119972229004,
        -0.9999473094940186,
        -1.0,
        1.0
      ],
      "type": "VEC4"
    },
    {
      "bufferView": 1,
      "byteOffset": 10792,
      "componentType": 5126,
      "count": 2099,
      "max": [
        0.983381986618042,
        0.8195520043373108
      ],
      "min": [
        0.0,
        0.0
      ],
      "type": "VEC2"
    },
    {
      "bufferView": 0,
      "byteOffset": 13596,
      "componentType": 5125,
      "count": 5907,
      "type": "SCALAR"
    },
    {
      "bufferView": 2,
      "byteOffset": 82752,
      "componentType": 5126,
      "count": 272,
      "max": [
        0.8213179707527161,
        30.989622116088867,
        -2.1991260051727295
      ],
      "min": [
        0.4914439916610718,
        16.912506103515625,
        -3.470444917678833
      ],
      "type": "VEC3"
    },
    {
      "bufferView": 2,
      "byteOffset": 86016,
      "componentType": 5126,
      "count": 272,
      "max": [
        1.0,
        1.0,
        1.0
      ],
      "min": [
        -0.9325017333030701,
        -1.0,
        -1.0
      ],
      "type": "VEC3"
    },
    {
      "bufferView": 3,
      "byteOffset": 55168,
      "componentType": 5126,
      "count": 272,
      "max": [
        1.0,
        0.8060179352760315,
        0.9951634407043457,
        1.0
      ],
      "min": [
        -0.9616540670394897,
        -0.9528080821037292,
        -1.0,
        1.0
      ],
      "type": "VEC4"
    },
    {
      "bufferView": 1,
      "byteOffset": 27584,
      "componentType": 5126,
      "count": 272,
      "max": [
        0.48545199632644653,
        0.16335399448871613
      ],
      "min": [
        0.1299010068178177,
        0.005886000115424395
      ],
      "type": "VEC2"
    },
    {
      "bufferView": 0,
      "byteOffset": 37224,
      "componentType": 5125,
      "count": 552,
      "type": "SCALAR"
    },
    {
      "bufferView": 2,
      "byteOffset": 89280,
      "componentType": 5126,
      "count": 3701,
      "max": [
        0.7988770008087158,
        33.825225830078125,
        4.773036956787109
      ],
      "min": [
        -0.5425220131874084,
        0.2346629947423935,
        -4.798536777496338
      ],
      "type": "VEC3"
    },
    {
      "bufferView": 2,
      "byteOffset": 133692,
      "componentType": 5126,
      "count": 3701,
      "max": [
        1.0,
        1.0,
        1.0
      ],
      "min": [
        -1.0,
        -1.0,
        -1.0
      ],
      "type": "VEC3"
    },
    {
      "bufferView": 3,
      "byteOffset": 59520,
      "componentType": 5126,
      "count": 3701,
      "max": [
        1.0,
        1.0,
        1.0,
        1.0
      ],
      "min": [
        -0.9847392439842224,
        -1.0,
        -1.0,
        -1.0
      ],
      "type": "VEC4"
    },
    {
      "bufferView": 1,
      "byteOffset": 29760,
      "componentType": 5126,
      "count": 3701,
      "max": [
        1.0,
        0.9810019731521606
      ],
      "min": [
        0.0,
        0.0
      ],
      "type": "VEC2"
    },
    {
      "bufferView": 0,
      "byteOffset": 39432,
      "componentType": 5125,
      "count": 9171,
      "type": "SCALAR"
    },
    {
      "bufferView": 2,
      "byteOffset": 178104,
      "componentType": 5126,
      "count": 2899,
      "max": [
        0.8442860245704651,
        31.347675323486328,
        4.70933198928833
      ],
      "min": [
        -0.4788169860839844,
        11.702431678771973,
        -3.58433198928833
      ],
      "type": "VEC3"
    },
    {
      "bufferView": 2,
      "byteOffset": 212892,
      "componentType": 5126,
      "count": 2899,
      "max": [
        0.9996175765991211,
        1.0,
        0.9999998807907104
      ],
      "min": [
        -0.9996175169944763,
        -1.0,
        -1.0
      ],
      "type": "VEC3"
    },
    {
      "bufferView": 3,
      "byteOffset": 118736,
      "componentType": 5126,
      "count": 2899,
      "max": [
        1.0,
        1.0,
        1.0,
        1.0
      ],
      "min": [
        -0.9933280944824219,
        -0.9999473094940186,
        -1.0,
        1.0
      ],
      "type": "VEC4"
    },
    {
      "bufferView": 1,
      "byteOffset": 59368,
      "componentType": 5126,
      "count": 2899,
      "max": [
        0.983381986618042,
        0.8195520043373108
      ],
      "min": [
        0.0,
        0.0
      ],
      "type": "VEC2"
    },
    {
      "bufferView": 0,
      "byteOffset": 76116,
      "componentType": 5125,
      "count": 8283,
      "type": "SCALAR"
    },
    {
      "bufferView": 2,
      "byteOffset": 247680,
      "componentType": 5126,
      "count": 3190,
      "max": [
        0.8620030283927917,
        31.188068389892578,
        1.3689149618148804
      ],
      "min": [
        -0.10721799731254578,
        8.48277759552002,
        -4.52039098739624
      ],
      "type": "VEC3"
    },
    {
      "bufferView": 2,
      "byteOffset": 285960,
      "componentType": 5126,
      "count": 3190,
      "max": [
        1.0,
        1.0,
        1.0
      ],
      "min": [
        -0.9996174573898315,
        -1.0,
        -1.0
      ],
      "type": "VEC3"
    },
    {
      "bufferView": 3,
      "byteOffset": 165120,
      "componentType": 5126,
      "count": 3190,
      "max": [
        1.0,
        0.9975850582122803,
        1.0,
        1.0
      ],
      "min": [
        -0.9616549015045166,
        -0.9717876315116882,
        -1.0,
        -1.0
      ],
      "type": "VEC4"
    },
    {
      "bufferView": 1,
      "byteOffset": 82560,
      "componentType": 5126,
      "count": 3190,
      "max": [
        0.9845700263977051,
        0.8689640164375305
      ],
      "min": [
        0.0,
        0.0
      ],
      "type": "VEC2"
    },
    {
      "bufferView": 0,
      "byteOffset": 109248,
      "componentType": 5125,
      "count": 8478,
      "type": "SCALAR"
    }
  ],
  "asset": {
    "extras": {
      "author": "aocrisan (https://sketchfab.com/aocrisan)",
      "license": "CC-BY-4.0 (http://creativecommons.org/licenses/by/4.0/)",
      "source": "https://sketchfab.com/3d-models/mojave-motel-sign-c64f69ab7a6e4674826de6600f1a61d6",
      "title": "Mojave Motel Sign"
    },
    "generator": "Sketchfab-12.66.0",
    "version": "2.0"
  },
  "bufferViews": [
    {
      "buffer": 0,
      "byteLength": 143160,
      "name": "floatBufferViews",
      "target": 34963
    },
    {
      "buffer": 0,
      "byteLength": 108080,
      "byteOffset": 143160,
      "byteStride": 8,
      "name": "floatBufferViews",
      "target": 34962
    },
    {
      "buffer": 0,
      "byteLength": 324240,
      "byteOffset": 251240,
      "byteStride": 12,
      "name": "floatBufferViews",
      "target": 34962
    },
    {
      "buffer": 0,
      "byteLength": 216160,
      "byteOffset": 575480,
      "byteStride": 16,
      "name": "floatBufferViews",
      "target": 34962
    }
  ],
  "buffers": [
    {
      "byteLength": 791640,
      "uri": "scene.bin"
    }
  ],
  "images": [
    {
      "uri": "textures/lambert1_baseColor.png"
    },
    {
      "uri": "textures/lambert1_metallicRoughness.png"
    },
    {
      "uri": "textures/lambert1_normal.png"
    },
    {
      "uri": "textures/glass_baseColor.png"
    },
    {
      "uri": "textures/glass_metallicRoughness.png"
    },
    {
      "uri": "textures/glass_normal.png"
    },
    {
      "uri": "textures/lambert2_baseColor.jpeg"
    },
    {
      "uri": "textures/lambert2_metallicRoughness.png"
    },
    {
      "uri": "textures/lambert2_normal.png"
    }
  ],
  "materials": [
    {
      "alphaMode": "BLEND",
      "doubleSided": true,
      "name": "lambert1",
      "normalTexture": {
        "index": 2
      },
      "occlusionTexture": {
        "index": 1
      },
      "pbrMetallicRoughness": {
        "baseColorTexture": {
          "index": 0
        },
        "metallicRoughnessTexture": {
          "index": 1
        }
      }
    },
    {
      "alphaMode": "BLEND",
      "doubleSided": true,
      "name": "glass",
      "normalTexture": {
        "index": 5
      },
      "occlusionTexture": {
        "index": 4
      },
      "pbrMetallicRoughness": {
        "baseColorTexture": {
          "index": 3
        },
        "metallicRoughnessTexture": {
          "index": 4
        }
      }
    },
    {
      "doubleSided": true,
      "name": "lambert2",
      "normalTexture": {
        "index": 8
      },
      "occlusionTexture": {
        "index": 7
      },
      "pbrMetallicRoughness": {
        "baseColorTexture": {
          "index": 6
        },
        "metallicRoughnessTexture": {
          "index": 7
        }
      }
    }
  ],
  "meshes": [
    {
      "name": "defaultMaterial",
      "primitives": [
        {
          "attributes": {
            "NORMAL": 1,
            "POSITION": 0,
            "TANGENT": 2,
            "TEXCOORD_0": 3
          },
          "indices": 4,
          "material": 0,
          "mode": 4
        }
      ]
    },
    {
      "name": "defaultMaterial",
      "primitives": [
        {
          "attributes": {
            "NORMAL": 6,
            "POSITION": 5,
            "TANGENT": 7,
            "TEXCOORD_0": 8
          },
          "indices": 9,
          "material": 1,
          "mode": 4
        }
      ]
    },
    {
      "name": "defaultMaterial",
      "primitives": [
        {
          "attributes": {
            "NORMAL": 11,
            "POSITION": 10,
            "TANGENT": 12,
            "TEXCOORD_0": 13
          },
          "indices": 14,
          "material": 2,
          "mode": 4
        }
      ]
    },
    {
      "name": "defaultMaterial",
      "primitives": [
        {
          "attributes": {
            "NORMAL": 16,
            "POSITION": 15,
            "TANGENT": 17,
            "TEXCOORD_0": 18
          },
          "indices": 19,
          "material": 0,
          "mode": 4
        }
      ]
    },
    {
      "name": "defaultMaterial",
      "primitives": [
        {
          "attributes": {
            "NORMAL": 21,
            "POSITION": 20,
            "TANGENT": 22,
            "TEXCOORD_0": 23
          },
          "indices": 24,
          "material": 1,
          "mode": 4
        }
      ]
    },
    {
      "name": "defaultMaterial",
      "primitives": [
        {
          "attributes": {
            "NORMAL": 26,
            "POSITION": 25,
            "TANGENT": 27,
            "TEXCOORD_0": 28
          },
          "indices": 29,
          "material": 2,
          "mode": 4
        }
      ]
    }
  ],
  "nodes": [
    {
      "children": [
        1
      ],
      "matrix": [
        1.0,
        0.0,
        0.0,
        0.0,
        0.0,
        2.220446049250313e-16,
        -1.0,
        0.0,
        0.0,
        1.0,
        2.220446049250313e-16,
        0.0,
        0.0,
        0.0,
        0.0,
        1.0
      ],
      "name": "Sketchfab_model"
    },
    {
      "children": [
        2,
        6
      ],
      "matrix": [
        1.0,
        0.0,
        0.0,
        0.0,
        0.0,
        -4.371139006309477e-08,
        0.999999999999999,
        0.0,
        0.0,
        -0.999999999999999,
        -4.371139006309477e-08,
        0.0,
        0.0,
        0.0,
        0.0,
        1.0
      ],
      "name": "Collada visual scene group"
    },
    {
      "children": [
        3,
        4,
        5
      ],
      "matrix": [
        -1.0,
        0.0,
        0.0,
        0.0,
        0.0,
        1.0,
        0.0,
        0.0,
        0.0,
        0.0,
        -1.0,
        0.0,
        0.252434,
        0.0,
        -5.452532,
        1.0
      ],
      "name": "pCube34"
    },
    {
      "mesh": 0,
      "name": "defaultMaterial"
    },
    {
      "mesh": 1,
      "name": "defaultMaterial"
    },
    {
      "mesh": 2,
      "name": "defaultMaterial"
    },
    {
      "children": [
        7,
        8,
        9
      ],
      "name": "pCube33"
    },
    {
      "mesh": 3,
      "name": "defaultMaterial"
    },
    {
      "mesh": 4,
      "name": "defaultMaterial"
    },
    {
      "mesh": 5,
      "name": "defaultMaterial"
    }
  ],
  "samplers": [
    {
      "magFilter": 9729,
      "minFilter": 9987,
      "wrapS": 10497,
      "wrapT": 10497
    }
  ],
  "scene": 0,
  "scenes": [
    {
      "name": "Sketchfab_Scene",
      "nodes": [
        0
      ]
    }
  ],
  "textures": [
    {
      "sampler": 0,
      "source": 0
    },
    {
      "sampler": 0,
      "source": 1
    },
    {
      "sampler": 0,
      "source": 2
    },
    {
      "sampler": 0,
      "source": 3
    },
    {
      "sampler": 0,
      "source": 4
    },
    {
      "sampler": 0,
      "source": 5
    },
    {
      "sampler": 0,
      "source": 6
    },
    {
      "sampler": 0,
      "source": 7
    },
    {
      "sampler": 0,
      "source": 8
    }
  ]
}
